<svg xmlns="http://www.w3.org/2000/svg" version="1.1" xmlns:xlink="http://www.w3.org/1999/xlink" xmlns:svgjs="http://svgjs.dev/svgjs" width="128" height="128"><svg id="SvgjsSvg1001" data-name="Layer 1" xmlns="http://www.w3.org/2000/svg" viewBox="0 0 128 128"><defs><style>.cls-1{fill:#f5d105;}.cls-1,.cls-2,.cls-3{fill-rule:evenodd;}.cls-2{fill:#559ac8;}.cls-3{fill:#fff;}</style></defs><path class="cls-1" d="M120.23,36.47c2.41-3-2.36-2.66-3.77-3.51-4.82-2.91-22.48,4.52-28.37,7.2l8.3,1L106.73,38,96.1,42.54,58.42,39.45l-4.33,3.29,28.64,7.31-6.9.24L59.19,58.16,61.89,56l-7.38-3.35L50.05,54l6.46,5.6a67.57,67.57,0,0,1-8.8,3.86,76.75,76.75,0,0,1-10.62,3.36c-.4.11-.8.22-1.21.31-25.62,6.21-38.42-13.47-22-30C1.85,54.62,16.07,70.86,40.58,60.89c-24.3,9-37.2-14-14.65-32.48A45.8,45.8,0,0,1,51.56,18.14,45,45,0,0,1,88.3,32.77,19.22,19.22,0,0,1,91,36c5.2-1.52,10.22-3.61,15.49-4.87,2.52-.6,8.38-1.59,10.71.66C117.76,32.33,124,33.68,120.23,36.47Z"></path><path class="cls-2" d="M104.24,52.07l2.82-1.64-3.72-4.25-3.24,1,19.6-9.84-13.43,9,3.88,4.95-5.71,2.54L99,53.41a7.88,7.88,0,0,1,.2,1,43.94,43.94,0,0,1,.72,5.32,45.1,45.1,0,0,1-41.58,48.35c-27.69,2.08-30.83-21.88-4.11-36.77C27,83.94,24,99.56,41.64,110,25.13,106.08,23,89,34.89,78.56a55,55,0,0,1,13.73-8.4l44.69-20Z"></path><polygon class="cls-3" points="53.59 41.29 58.45 36.27 85.96 39.92 58.56 37.58 53.59 41.29"></polygon><polygon class="cls-3" points="60.9 54.59 73.33 49.94 62.1 55.16 60.9 54.59"></polygon></svg><style>@media (prefers-color-scheme: light) { :root { filter: none; } }
@media (prefers-color-scheme: dark) { :root { filter: none; } }
</style></svg>